<svg xmlns="http://www.w3.org/2000/svg" viewBox="0 0 200 200">
  <!-- Background -->
  <rect x="10" y="30" width="180" height="160" rx="20" fill="#2E9E5B"/>

  <!-- Calendar rings -->
  <circle cx="55" cy="30" r="12" fill="#E8F5E9"/>
  <rect x="49" y="10" width="12" height="30" rx="6" fill="#2E9E5B"/>
  <circle cx="145" cy="30" r="12" fill="#E8F5E9"/>
  <rect x="139" y="10" width="12" height="30" rx="6" fill="#2E9E5B"/>

  <!-- Inner white area -->
  <rect x="25" y="55" width="150" height="120" rx="10" fill="#E8F5E9"/>

  <!-- Decorative lines on sides -->
  <path d="M40 80 Q30 100 40 120" stroke="#2E9E5B" stroke-width="4" fill="none" stroke-linecap="round"/>
  <path d="M160 80 Q170 100 160 120" stroke="#2E9E5B" stroke-width="4" fill="none" stroke-linecap="round"/>

  <!-- Location pin -->
  <path d="M100 70 C85 70 73 82 73 97 C73 118 100 140 100 140 C100 140 127 118 127 97 C127 82 115 70 100 70 Z" fill="#E84A7F"/>
  <circle cx="100" cy="95" r="12" fill="#E8F5E9"/>

  <!-- Left person -->
  <circle cx="55" cy="130" r="18" fill="#E84A7F"/>
  <circle cx="55" cy="105" r="12" fill="#E84A7F"/>

  <!-- Right person -->
  <circle cx="145" cy="130" r="18" fill="#E84A7F"/>
  <circle cx="145" cy="105" r="12" fill="#E84A7F"/>
</svg>
